ply
format ascii 1.0
element vertex 88
property float x
property float y
property float z
property float u
property float v
property float nx
property float ny
property float nz
element face 40
property list uchar int vertex_indices
end_header
4.454 -23.002 67.997 0.237932 0.20652 0 -1 0
4.454 -23.002 0 0.327965 0.060532 0 -1 0
91.125 -23.002 67.997 0.407065 0.338986 0 -1 0
91.125 -23.002 0 0.509935 0.205093 0 -1 0
10.796 -16.292 67.997 0.230019 0.223452 1 0 0
10.796 -16.292 0 0.151333 0.386043 1 0 0
10.796 53.04 0 0.014352 0.332046 1 0 0
91.125 -16.292 0 0.520833 0.19203 0 0 -1
91.125 -23.002 0 0.509935 0.205093 0 0 -1
10.796 -16.292 0 0.352337 0.058079 0 0 -1
10.796 -16.292 0 0.151333 0.386043 0 0 -1
4.454 40.3047 0 0.028068 0.352836 0 0 -1
10.796 53.04 0 0.014352 0.332046 0 0 -1
4.454 -23.002 67.997 0.237932 0.20652 -1 0 0
4.454 40.3047 67.997 0.09055 0.170454 -1 0 0
4.454 -23.002 0 0.327965 0.060532 -1 0 0
4.454 40.3047 0 0.157697 0 -1 0 0
10.796 53.04 67.997 0.043945 0.18358 1 0 0
4.454 -23.002 0 0.327965 0.060532 0 0 -1
4.454 -23.002 0 0.153016 0.403489 0 0 -1
4.454 40.3047 67.997 0.338558 0.676037 0.539624 -0.841906 0
-88.549 -19.306 0 0 0.631164 0.539624 -0.841906 0
4.454 40.3047 0 0.245686 0.516789 0.539624 -0.841906 0
91.125 -16.292 67.997 0.398536 0.342548 1 0 0
91.125 -23.002 67.997 0.407065 0.338986 1 0 0
91.125 -23.002 0 0.332691 0.49095 1 0 0
91.125 -16.292 0 0.31496 0.487368 1 0 0
-82.3491 -16.606 53.6972 0.091841 0.761111 0.539624 -0.841906 0
10.796 53.04 0 0.014352 0.332046 0 1 0
4.454 53.04 0 0.000253 0.336114 0 1 0
10.796 53.04 67.997 0.043945 0.18358 0 1 0
4.454 53.04 67.997 0.030749 0.194584 0 1 0
4.454 53.04 0 0.000253 0.336114 -1 0 0
4.454 52.5595 0 0 0.337231 -1 0 0
4.454 53.04 67.997 0.030749 0.194584 -1 0 0
4.454 52.5595 67.997 0.030315 0.195733 -1 0 0
91.125 -23.002 67.997 0.407065 0.338986 0 0 1
10.796 -16.292 67.997 0.230019 0.223452 0 0 1
4.454 -23.002 67.997 0.237932 0.20652 0 0 1
4.454 40.3047 67.997 0.09055 0.170454 0 0 1
4.454 -23.002 67.997 0.237932 0.20652 0 0 1
10.796 -16.292 67.997 0.230019 0.223452 0 0 1
-87.5481 -7.37599 53.6972 0.103777 0.750647 0 0 1
-82.3491 -16.606 53.6972 0.091841 0.761111 0 0 1
4.454 40.3047 67.997 0.338558 0.676037 0 0 1
-87.5481 -7.37599 53.6972 0.103777 0.750647 0 0 1
4.454 40.3047 67.997 0.338558 0.676037 0 0 1
4.454 52.5595 67.997 0.367761 0.739244 0 0 1
-87.5481 -7.37599 53.6972 0.103777 0.750647 0 0 1
4.454 52.5595 67.997 0.367761 0.739244 0 0 1
4.327 52.785 67.997 0.374162 0.776742 0 0 1
10.796 -16.292 67.997 0.230019 0.223452 0 0 1
10.796 53.04 67.997 0.043945 0.18358 0 0 1
4.454 40.3047 67.997 0.09055 0.170454 0 0 1
4.454 52.5595 67.997 0.048488 0.168113 0 0 1
4.454 53.04 67.997 0.047248 0.168103 0 0 1
91.125 -16.292 67.997 0.398536 0.342548 0 0 1
-93.748 -10.076 0 0.044862 0.902262 -0.53962 0.841909 0
-87.5481 -7.37599 53.6972 0.103777 0.750647 -0.53962 0.841909 0
4.327 52.785 67.997 0.374162 0.776742 -0.53962 0.841909 0
4.327 52.785 0 0.320647 0.954506 -0.53962 0.841909 0
-88.549 -19.306 0 0.022174 0.886663 -0.871288 -0.490772 0
-82.3491 -16.606 53.6972 0.091841 0.761111 -0.871288 -0.490772 0
-93.748 -10.076 0 0.044862 0.902262 -0.871288 -0.490772 0
-87.5481 -7.37599 53.6972 0.103777 0.750647 -0.871288 -0.490772 0
-93.748 -10.076 0 0.044862 0.902262 -0.871288 -0.490772 0
-82.3491 -16.606 53.6972 0.091841 0.761111 -0.871288 -0.490772 0
4.327 52.785 67.997 0.374162 0.776742 0.871328 0.4907 0
4.454 52.5595 67.997 0.37459 0.777248 0.871328 0.4907 0
4.454 52.5595 0 0.321004 0.953816 0.871328 0.4907 0
4.327 52.785 67.997 0.374162 0.776742 0.871328 0.4907 0
4.454 52.5595 0 0.321004 0.953816 0.871328 0.4907 0
4.327 52.785 0 0.320647 0.954506 0.871328 0.4907 0
10.796 -16.292 67.997 0.230019 0.223452 0 1 0
91.125 -16.292 67.997 0.398536 0.342548 0 1 0
91.125 -16.292 0 0.31496 0.487368 0 1 0
10.796 -16.292 0 0.151333 0.386043 0 1 0
4.454 52.5595 0 0 0.337231 0 0 -1
4.454 53.04 0 0.000253 0.336114 0 0 -1
10.796 53.04 0 0.014352 0.332046 0 0 -1
4.454 52.5595 0 0 0.337231 0 0 -1
-88.549 -19.306 0 0.049082 0.929417 0 0 -1
-93.748 -10.076 0 0.044862 0.902262 0 0 -1
4.454 40.3047 0 0.311086 0.97584 0 0 -1
4.454 52.5595 0 0.321004 0.953816 0 0 -1
4.327 52.785 0 0.320647 0.954506 0 0 -1
4.454 52.5595 0 0.321004 0.953816 0 0 -1
-93.748 -10.076 0 0.044862 0.902262 0 0 -1
3 0 1 2
3 2 1 3
3 4 5 6
3 17 4 6
3 7 8 9
3 18 9 8
3 10 11 12
3 11 10 19
3 11 77 12
3 13 14 15
3 16 15 14
3 20 21 22
3 20 27 21
3 23 24 25
3 23 25 26
3 28 29 30
3 31 30 29
3 32 33 34
3 35 34 33
3 36 37 38
3 56 37 36
3 39 40 41
3 39 52 54
3 51 52 53
3 55 54 52
3 42 43 44
3 45 46 47
3 48 49 50
3 57 58 59
3 57 59 60
3 61 62 63
3 64 65 66
3 67 68 69
3 70 71 72
3 73 74 75
3 73 75 76
3 78 79 80
3 81 82 83
3 84 83 82
3 85 86 87
