ply
format ascii 1.0
element vertex 12
property float x
property float y
property float z
property float u
property float v
property float nx
property float ny
property float nz
element face 6
property list uchar int vertex_indices
end_header
-566.998 9.39098 171.98 0.195511 0.986824 0.707107 0 -0.707107
-566.998 9.39098 -232.173 0.825428 0.987172 1 0 0
-566.998 276.634 -232.173 0.825728 0.667057 1 0 0
-566.998 276.634 171.98 0.195811 0.666709 0.707107 0 -0.707107
-566.998 276.634 171.98 0.946802 0.338853 0.707107 0 -0.707107
0.130103 276.634 171.98 0.062256 0.338853 -1.33048e-08 0 -1
0.130103 9.39098 171.98 0.062256 0.658746 -1.33048e-08 0 -1
-566.998 9.39098 171.98 0.946802 0.658746 0.707107 0 -0.707107
0.130103 276.634 171.98 0.951407 0.014711 -1.33048e-08 0 -1
573.56 276.634 171.98 0.057033 0.014711 -2.66097e-08 0 -1
573.56 9.39098 171.98 0.057033 0.334604 -2.66097e-08 0 -1
0.130103 9.39098 171.98 0.951407 0.334604 -1.33048e-08 0 -1
3 0 1 2
3 0 2 3
3 4 5 6
3 4 6 7
3 8 9 10
3 8 10 11
