ply
format ascii 1.0
element vertex 250
property float x
property float y
property float z
property float u
property float v
property float nx
property float ny
property float nz
element face 248
property list uchar int vertex_indices
end_header
-566.003 3.58818 104.455 0.003397 0 -0.549151 0 -0.835723
-566.323 4.55043 104.678 0 0 -0.572554 0 -0.819867
-566.323 19.466 104.678 0 1 -0.572554 0 -0.819867
-566.003 18.5037 104.455 0.003397 1 -0.549151 0 -0.835723
-565.609 2.66158 104.211 0.006794 0 -0.493295 0 -0.869862
-565.609 17.5771 104.211 0.006794 1 -0.493295 0 -0.869862
-565.139 1.76484 103.968 0.010191 0 -0.460468 0 -0.887677
-565.139 16.6804 103.968 0.010191 1 -0.460468 0 -0.887677
-564.59 0.892193 103.683 0.013588 0 -0.464145 0 -0.885759
-564.59 15.8077 103.683 0.013588 1 -0.464145 0 -0.885759
-563.708 -0.270602 103.216 0.018489 0 -0.466849 0 -0.884337
-563.708 14.6449 103.216 0.018489 1 -0.466849 0 -0.884337
-562.743 -1.28254 102.708 0.02339 0 -0.46176 0 -0.887005
-562.743 13.633 102.708 0.02339 1 -0.46176 0 -0.887005
-561.678 -2.16211 102.16 0.028291 0 -0.451157 0 -0.892445
-561.678 12.7534 102.16 0.028291 1 -0.451157 0 -0.892445
-560.491 -2.92778 101.571 0.033192 0 -0.432924 0 -0.90143
-560.491 11.9878 101.571 0.033192 1 -0.432924 0 -0.90143
-559.223 -3.55932 100.982 0.038088 0 -0.40992 0 -0.912121
-559.223 11.3562 100.982 0.038088 1 -0.40992 0 -0.912121
-557.914 -4.04374 100.413 0.042983 0 -0.380519 0 -0.924773
-557.914 10.8718 100.413 0.042983 1 -0.380519 0 -0.924773
-556.556 -4.40804 99.8848 0.047879 0 -0.343674 0 -0.939089
-556.556 10.5075 99.8848 0.047879 1 -0.343674 0 -0.939089
-555.136 -4.67923 99.3972 0.052775 0 -0.31155 0 -0.95023
-555.136 10.2363 99.3972 0.052775 1 -0.31155 0 -0.95023
-552.73 -4.97021 98.6457 0.060829 0 -0.273877 0 -0.961765
-552.73 9.94533 98.6457 0.060829 1 -0.273877 0 -0.961765
-550.285 -5.12521 98.016 0.068882 0 -0.247976 0 -0.968766
-550.285 9.79034 98.016 0.068882 1 -0.247976 0 -0.968766
-549.567 -5.15829 97.8332 0.071236 0 -0.246256 0 -0.969205
-549.567 9.75726 97.8332 0.071236 1 -0.246256 0 -0.969205
-548.126 -5.22715 97.4676 0.075963 0 -0.264913 0 -0.964272
-548.126 9.6884 97.4676 0.075963 1 -0.264913 0 -0.964272
-544.969 -5.40527 96.5332 0.086838 0 -0.311057 0 -0.950391
-544.969 9.51027 96.5332 0.086838 1 -0.311057 0 -0.950391
-542.028 -5.62513 95.4769 0.097712 0 -0.36572 0 -0.930725
-542.028 9.29042 95.4769 0.097712 1 -0.36572 0 -0.930725
-540.603 -5.75686 94.8676 0.10315 0 -0.410265 0 -0.911967
-540.603 9.15869 94.8676 0.10315 1 -0.410265 0 -0.911967
-539.185 -5.90641 94.1973 0.108587 0 -0.447274 0 -0.894397
-539.185 9.00914 94.1973 0.108587 1 -0.447274 0 -0.894397
-537.761 -6.07623 93.4457 0.114024 0 -0.487699 0 -0.873012
-537.761 8.83931 93.4457 0.114024 1 -0.487699 0 -0.873012
-536.315 -6.2688 92.5926 0.119462 0 -0.518939 0 -0.854811
-536.315 8.64675 92.5926 0.119462 1 -0.518939 0 -0.854811
-533.29 -6.66655 90.7035 0.130753 0 -0.517057 0 -0.855951
-533.29 8.24899 90.7035 0.130753 1 -0.517057 0 -0.855951
-530.195 -6.97451 88.8957 0.142044 0 -0.479606 0 -0.877484
-530.195 7.94104 88.8957 0.142044 1 -0.479606 0 -0.877484
-527.209 -7.17007 87.3723 0.152571 0 -0.433936 0 -0.900944
-527.209 7.74548 87.3723 0.152571 1 -0.433936 0 -0.900944
-524.165 -7.31412 85.991 0.163097 0 -0.401446 0 -0.915883
-524.165 7.60143 85.991 0.163097 1 -0.401446 0 -0.915883
-521.284 -7.41968 84.7722 0.172933 0 -0.374164 0 -0.927363
-521.284 7.49587 84.7722 0.172933 1 -0.374164 0 -0.927363
-518.376 -7.50158 83.6551 0.18277 0 -0.33292 0 -0.942955
-518.376 7.41397 83.6551 0.18277 1 -0.33292 0 -0.942955
-515.416 -7.56071 82.7004 0.192606 0 -0.283088 0 -0.959094
-515.416 7.35484 82.7004 0.192606 1 -0.283088 0 -0.959094
-512.386 -7.59795 81.8879 0.202443 0 -0.221643 0 -0.975128
-512.386 7.3176 81.8879 0.202443 1 -0.221643 0 -0.975128
-509.673 -7.60648 81.3801 0.210983 0 -0.143405 0 -0.989664
-509.673 7.30907 81.3801 0.210983 1 -0.143405 0 -0.989664
-508.294 -7.5971 81.2379 0.215253 0 -0.0732826 0 -0.997311
-508.294 7.31845 81.2379 0.215253 1 -0.0732826 0 -0.997311
-506.908 -7.57619 81.1769 0.219524 0 0.00730489 0 -0.999973
-506.908 7.33936 81.1769 0.219524 1 0.00730489 0 -0.999973
-505.522 -7.54193 81.2582 0.223794 0 0.0951022 0 -0.995468
-505.522 7.37362 81.2582 0.223794 1 0.0951022 0 -0.995468
-504.144 -7.49249 81.441 0.228064 0 0.195586 0 -0.980687
-504.144 7.42306 81.441 0.228064 1 0.195586 0 -0.980687
-502.779 -7.42604 81.8066 0.232335 0 0.306594 0 -0.95184
-502.779 7.48951 81.8066 0.232335 1 0.306594 0 -0.95184
-501.436 -7.34077 82.3144 0.236605 0 0.414415 0 -0.910088
-501.436 7.57478 82.3144 0.236605 1 0.414415 0 -0.910088
-500.113 -7.23555 83.0254 0.240917 0 0.518703 0 -0.854955
-500.113 7.68 83.0254 0.240917 1 0.518703 0 -0.854955
-498.83 -7.11613 83.8988 0.245229 0 0.590049 0 -0.807367
-498.83 7.79942 83.8988 0.245229 1 0.590049 0 -0.807367
-497.586 -6.98823 84.8738 0.249541 0 0.641502 0 -0.767121
-497.586 7.92732 84.8738 0.249541 1 0.641502 0 -0.767121
-496.379 -6.85755 85.9504 0.253852 0 0.67483 0 -0.737973
-496.379 8.05799 85.9504 0.253852 1 0.67483 0 -0.737973
-491.895 -6.42129 90.1551 0.2711 0 0.657708 0 -0.753273
-491.895 8.49426 90.1551 0.2711 1 0.657708 0 -0.753273
-490.669 -6.34908 91.1504 0.276233 0 0.598807 0 -0.800893
-490.669 8.56647 91.1504 0.276233 1 0.598807 0 -0.800893
-489.486 -6.30465 91.9629 0.281367 0 0.532154 0 -0.846648
-489.486 8.6109 91.9629 0.281367 1 0.532154 0 -0.846648
-488.317 -6.28649 92.6332 0.2865 0 0.452513 0 -0.891758
-488.317 8.62906 92.6332 0.2865 1 0.452513 0 -0.891758
-487.13 -6.2931 93.1613 0.291633 0 0.360059 0 -0.932929
-487.13 8.62245 93.1613 0.291633 1 0.360059 0 -0.932929
-485.896 -6.32295 93.5676 0.296767 0 0.26968 0 -0.96295
-485.896 8.5926 93.5676 0.296767 1 0.26968 0 -0.96295
-484.583 -6.37455 93.8723 0.3019 0 0.183995 0 -0.982927
-484.583 8.541 93.8723 0.3019 1 0.183995 0 -0.982927
-483.163 -6.44637 94.0754 0.307033 0 0.10335 0 -0.994645
-483.163 8.46917 94.0754 0.307033 1 0.10335 0 -0.994645
-481.604 -6.53692 94.1769 0.312166 0 0.0442131 0 -0.999022
-481.604 8.37863 94.1769 0.312166 1 0.0442131 0 -0.999022
-479.868 -6.64344 94.2176 0.317345 0 0.006269 0 -0.99998
-479.868 8.27211 94.2176 0.317345 1 0.00626899 0 -0.99998
-478 -6.75939 94.1973 0.322523 0 -0.0361861 0 -0.999345
-478 8.15615 94.1973 0.322523 1 -0.0361861 0 -0.999345
-474.042 -7.00104 93.9535 0.332879 0 -0.0768841 0 -0.99704
-474.042 7.91451 93.9535 0.332879 1 -0.0768841 0 -0.99704
-470.097 -7.22481 93.5879 0.343235 0 -0.105529 0 -0.994416
-470.097 7.69074 93.5879 0.343235 1 -0.105529 0 -0.994416
-466.531 -7.39363 93.1613 0.353591 0 -0.126352 0 -0.991985
-466.531 7.52192 93.1613 0.353591 1 -0.126352 0 -0.991985
-458.865 -7.59035 92.1254 0.378025 0 -0.140478 0 -0.990084
-458.865 7.3252 92.1254 0.378025 1 -0.140478 0 -0.990084
-455.039 -7.60439 91.5566 0.390242 0 -0.152228 0 -0.988345
-455.039 7.31116 91.5566 0.390242 1 -0.152228 0 -0.988345
-451.216 -7.55902 90.9473 0.40246 0 -0.161492 0 -0.986874
-451.216 7.35653 90.9473 0.40246 1 -0.161492 0 -0.986874
-443.472 -7.31909 89.6472 0.427268 0 -0.173421 0 -0.984848
-443.472 7.59645 89.6472 0.427268 1 -0.173421 0 -0.984848
-435.758 -6.97432 88.2254 0.452076 0 -0.191679 0 -0.981458
-435.758 7.94123 88.2254 0.452076 1 -0.191679 0 -0.981458
-428.079 -6.62507 86.641 0.476884 0 -0.214739 0 -0.976672
-428.079 8.29047 86.641 0.476884 1 -0.214739 0 -0.976672
-424.251 -6.48015 85.7473 0.489289 0 -0.232492 0 -0.972598
-424.251 8.4354 85.7473 0.489289 1 -0.232492 0 -0.972598
-420.431 -6.37174 84.8129 0.501693 0 -0.247485 0 -0.968892
-420.431 8.54381 84.8129 0.501693 1 -0.247485 0 -0.968892
-416.542 -6.309 83.7769 0.514385 0 -0.267676 0 -0.963509
-416.542 8.60655 83.7769 0.514385 1 -0.267676 0 -0.963509
-412.681 -6.30028 82.6598 0.527078 0 -0.285772 0 -0.958298
-412.681 8.61527 82.6598 0.527078 1 -0.285772 0 -0.958298
-408.844 -6.35097 81.4816 0.539771 0 -0.305863 0 -0.952075
-408.844 8.56458 81.4816 0.539771 1 -0.305863 0 -0.952075
-405.031 -6.46645 80.2019 0.552463 0 -0.329559 0 -0.944135
-405.031 8.4491 80.2019 0.552463 1 -0.329559 0 -0.944135
-401.166 -6.64938 78.8004 0.565421 0 -0.348689 0 -0.937238
-401.166 8.26617 78.8004 0.565421 1 -0.348689 0 -0.937238
-397.332 -6.88279 77.3379 0.57838 0 -0.360188 0 -0.93288
-397.332 8.03276 77.3379 0.57838 1 -0.360188 0 -0.93288
-389.691 -7.4424 74.3519 0.604296 0 -0.35792 0 -0.933752
-389.691 7.47315 74.3519 0.604296 1 -0.35792 0 -0.933752
-386.341 -7.70342 73.0926 0.614026 0 -0.33853 0 -0.940956
-386.341 7.21212 73.0926 0.614026 1 -0.33853 0 -0.940956
-382.382 -8.00847 71.7316 0.623756 0 -0.300889 0 -0.953659
-382.382 6.90707 71.7316 0.623756 1 -0.300889 0 -0.953659
-380.334 -8.16185 71.1426 0.628621 0 -0.256154 0 -0.966636
-380.334 6.7537 71.1426 0.628621 1 -0.256154 0 -0.966636
-378.325 -8.30745 70.6551 0.633486 0 -0.196971 0 -0.980409
-378.325 6.6081 70.6551 0.633486 1 -0.196971 0 -0.980409
-376.419 -8.439 70.3504 0.638351 0 -0.114006 0 -0.99348
-376.419 6.47655 70.3504 0.638351 1 -0.114006 0 -0.99348
-374.68 -8.55024 70.2285 0.643216 0 -0.00327393 0 -0.999995
-374.68 6.36531 70.2285 0.643216 1 -0.00327393 0 -0.999995
-373.4 -8.62448 70.3098 0.647293 0 0.139608 0 -0.990207
-373.4 6.29107 70.3098 0.647293 1 0.139608 0 -0.990207
-372.293 -8.68199 70.5535 0.65137 0 0.305286 0 -0.952261
-372.293 6.23356 70.5535 0.65137 1 0.305286 0 -0.952261
-371.342 -8.7239 70.9597 0.655447 0 0.486737 0 -0.873549
-371.342 6.19165 70.9597 0.655447 1 0.486737 0 -0.873549
-370.534 -8.7513 71.5285 0.659524 0 0.65157 0 -0.758589
-370.534 6.16425 71.5285 0.659524 1 0.65157 0 -0.758589
-369.852 -8.76532 72.2394 0.663601 0 0.783315 0 -0.621625
-369.852 6.15023 72.2394 0.663601 1 0.783315 0 -0.621624
-369.283 -8.76707 73.1129 0.667678 0 0.876399 0 -0.481585
-369.283 6.14848 73.1129 0.667678 1 0.876399 0 -0.481585
-368.811 -8.75765 74.1488 0.671755 0 0.931192 0 -0.36453
-368.811 6.1579 74.1488 0.671755 1 0.931192 0 -0.36453
-368.422 -8.73818 75.3269 0.675833 0 0.961752 0 -0.273922
-368.422 6.17736 75.3269 0.675833 1 0.961752 0 -0.273922
-368.119 -8.71167 76.5863 0.679848 0 0.977951 0 -0.208834
-368.119 6.20387 76.5863 0.679848 1 0.977951 0 -0.208834
-367.888 -8.68037 77.8254 0.683864 0 0.987997 0 -0.154472
-367.888 6.23517 77.8254 0.683864 1 0.987997 0 -0.154472
-367.567 -8.60764 80.3644 0.691895 0 0.994559 0 -0.104179
-367.567 6.30791 80.3644 0.691895 1 0.994559 0 -0.104179
-367.275 -8.49412 83.8785 0.702987 0 0.997948 0 -0.0640228
-367.275 6.42143 83.8785 0.702987 1 0.997948 0 -0.0640228
-367.115 -8.36813 87.4129 0.714079 0 0.999607 0 -0.0280389
-367.115 6.54742 87.4129 0.714079 1 0.999607 0 -0.0280389
-367.063 -8.179 92.2066 0.72917 0 0.999961 0 0.00880713
-367.063 6.73655 92.2066 0.72917 1 0.999961 0 0.00880713
-367.2 -7.96904 97.0207 0.744262 0 0.998879 0 0.0473293
-367.2 6.94651 97.0207 0.744262 1 0.998879 0 0.0473294
-367.442 -7.79352 100.677 0.755809 0 0.996212 0 0.0869583
-367.442 7.12203 100.677 0.755809 1 0.996212 0 0.0869583
-367.838 -7.60298 104.333 0.767357 0 0.991354 0 0.131213
-367.838 7.31257 104.333 0.767357 1 0.991354 0 0.131213
-368.191 -7.47577 106.588 0.774535 0 0.984589 0 0.174884
-368.191 7.43978 106.588 0.774535 1 0.984589 0 0.174884
-368.636 -7.34147 108.822 0.781712 0 0.977101 0 0.212778
-368.636 7.57408 108.822 0.781712 1 0.977101 0 0.212778
-369.16 -7.19978 111.036 0.78889 0 0.969147 0 0.246482
-369.16 7.71577 111.036 0.78889 1 0.969147 0 0.246482
-369.757 -7.05038 113.23 0.796068 0 0.960279 0 0.279042
-369.757 7.86516 113.23 0.796068 1 0.960279 0 0.279042
-371.636 -6.59583 119.303 0.816123 0 0.95186 0 0.306534
-371.636 8.31972 119.303 0.816123 1 0.95186 0 0.306534
-373.655 -6.08525 125.336 0.836177 0 0.947886 0 0.31861
-373.655 8.8303 125.336 0.836177 1 0.947886 0 0.31861
-377.158 -5.04719 135.716 0.870725 0 0.948604 0 0.316465
-377.158 9.86836 135.716 0.870725 1 0.948604 0 0.316465
-378.806 -4.45457 140.713 0.887342 0 0.951772 0 0.306807
-378.806 10.461 140.713 0.887342 1 0.951772 0 0.306807
-379.618 -4.11979 143.293 0.895925 0 0.957463 0 0.288557
-379.618 10.7958 143.293 0.895925 1 0.957463 0 0.288557
-380.361 -3.76611 145.872 0.904508 0 0.966532 0 0.256546
-380.361 11.1494 145.872 0.904508 1 0.966532 0 0.256546
-380.998 -3.39282 148.493 0.913091 0 0.977425 0 0.211281
-380.998 11.5227 148.493 0.913091 1 0.977425 0 0.211281
-381.502 -2.99922 151.154 0.921673 0 0.986832 0 0.161746
-381.502 11.9163 151.154 0.921673 1 0.986832 0 0.161746
-381.787 -2.68396 153.205 0.928277 0 0.993657 0 0.112456
-381.787 12.2316 153.205 0.928277 1 0.993657 0 0.112456
-381.967 -2.3609 155.257 0.93488 0 0.998473 0 0.0552455
-381.967 12.5546 155.257 0.93488 1 0.998473 0 0.0552455
-382.014 -2.03165 157.308 0.941484 0 0.99986 0 -0.0167422
-382.014 12.8839 157.308 0.941484 1 0.99986 0 -0.0167422
-381.896 -1.69781 159.4 0.948088 0 0.995735 0 -0.0922552
-381.896 13.2177 159.4 0.948088 1 0.995735 0 -0.0922552
-381.736 -1.4993 160.639 0.952053 0 0.981983 0 -0.188968
-381.736 13.4163 160.639 0.952053 1 0.981983 0 -0.188968
-381.422 -1.32332 161.858 0.956019 0 0.959725 0 -0.280941
-381.422 13.5922 161.858 0.956019 1 0.959725 0 -0.280941
-380.861 -1.08664 163.564 0.961514 0 0.966202 0 -0.257786
-380.861 13.8289 163.564 0.961514 1 0.966202 0 -0.257786
-380.559 -0.828283 165.027 0.966291 0 0.989624 0 -0.143678
-380.559 14.0873 165.027 0.966291 1 0.989624 0 -0.143678
-380.439 -0.514972 166.449 0.971068 0 0.999817 0 -0.0191128
-380.439 14.4006 166.449 0.971068 1 0.999817 0 -0.0191128
-380.505 -0.113745 167.871 0.975845 0 0.993395 0 0.114741
-380.505 14.8018 167.871 0.975845 1 0.993395 0 0.114741
-380.765 0.408366 169.272 0.980622 0 0.97149 0 0.237079
-380.765 15.3239 169.272 0.980622 1 0.97149 0 0.237079
-381.037 0.808208 170.166 0.983587 0 0.936713 0 0.350099
-381.037 15.7238 170.166 0.983587 1 0.936713 0 0.350099
-381.4 1.28557 170.979 0.986552 0 0.881701 0 0.471809
-381.4 16.2011 170.979 0.986552 1 0.881701 0 0.471809
-381.848 1.86229 171.689 0.989516 0 0.782124 0 0.623123
-381.848 16.7778 171.689 0.989516 1 0.782124 0 0.623123
-382.373 2.5602 172.218 0.992481 0 0.630266 0 0.776379
-382.373 17.4757 172.218 0.992481 1 0.630266 0 0.776379
-382.717 3.03743 172.441 0.994361 0 0.455888 0 0.890037
-382.717 17.953 172.441 0.994361 1 0.455888 0 0.890037
-383.031 3.51313 172.563 0.99624 0 0.220672 0 0.975348
-383.031 18.4287 172.563 0.99624 1 0.220672 0 0.975348
-383.304 4.00992 172.583 0.99812 0 -0.0522806 0 0.998632
-383.304 18.9255 172.583 0.99812 1 -0.0522806 0 0.998632
-383.529 4.55043 172.543 1 0 -0.177927 0 0.984044
-383.529 19.466 172.543 1 1 -0.177927 0 0.984044
3 0 1 2
3 0 2 3
3 4 0 3
3 4 3 5
3 6 4 5
3 6 5 7
3 8 6 7
3 8 7 9
3 10 8 9
3 10 9 11
3 12 10 11
3 12 11 13
3 14 12 13
3 14 13 15
3 16 14 15
3 16 15 17
3 18 16 17
3 18 17 19
3 20 18 19
3 20 19 21
3 22 20 21
3 22 21 23
3 24 22 23
3 24 23 25
3 26 24 25
3 26 25 27
3 28 26 27
3 28 27 29
3 30 28 29
3 30 29 31
3 32 30 31
3 32 31 33
3 34 32 33
3 34 33 35
3 36 34 35
3 36 35 37
3 38 36 37
3 38 37 39
3 40 38 39
3 40 39 41
3 42 40 41
3 42 41 43
3 44 42 43
3 44 43 45
3 46 44 45
3 46 45 47
3 48 46 47
3 48 47 49
3 50 48 49
3 50 49 51
3 52 50 51
3 52 51 53
3 54 52 53
3 54 53 55
3 56 54 55
3 56 55 57
3 58 56 57
3 58 57 59
3 60 58 59
3 60 59 61
3 62 60 61
3 62 61 63
3 64 62 63
3 64 63 65
3 66 64 65
3 66 65 67
3 68 66 67
3 68 67 69
3 70 68 69
3 70 69 71
3 72 70 71
3 72 71 73
3 74 72 73
3 74 73 75
3 76 74 75
3 76 75 77
3 78 76 77
3 78 77 79
3 80 78 79
3 80 79 81
3 82 80 81
3 82 81 83
3 84 82 83
3 84 83 85
3 86 84 85
3 86 85 87
3 88 86 87
3 88 87 89
3 90 88 89
3 90 89 91
3 92 90 91
3 92 91 93
3 94 92 93
3 94 93 95
3 96 94 95
3 96 95 97
3 98 96 97
3 98 97 99
3 100 98 99
3 100 99 101
3 102 100 101
3 102 101 103
3 104 102 103
3 104 103 105
3 106 104 105
3 106 105 107
3 108 106 107
3 108 107 109
3 110 108 109
3 110 109 111
3 112 110 111
3 112 111 113
3 114 112 113
3 114 113 115
3 116 114 115
3 116 115 117
3 118 116 117
3 118 117 119
3 120 118 119
3 120 119 121
3 122 120 121
3 122 121 123
3 124 122 123
3 124 123 125
3 126 124 125
3 126 125 127
3 128 126 127
3 128 127 129
3 130 128 129
3 130 129 131
3 132 130 131
3 132 131 133
3 134 132 133
3 134 133 135
3 136 134 135
3 136 135 137
3 138 136 137
3 138 137 139
3 140 138 139
3 140 139 141
3 142 140 141
3 142 141 143
3 144 142 143
3 144 143 145
3 146 144 145
3 146 145 147
3 148 146 147
3 148 147 149
3 150 148 149
3 150 149 151
3 152 150 151
3 152 151 153
3 154 152 153
3 154 153 155
3 156 154 155
3 156 155 157
3 158 156 157
3 158 157 159
3 160 158 159
3 160 159 161
3 162 160 161
3 162 161 163
3 164 162 163
3 164 163 165
3 166 164 165
3 166 165 167
3 168 166 167
3 168 167 169
3 170 168 169
3 170 169 171
3 172 170 171
3 172 171 173
3 174 172 173
3 174 173 175
3 176 174 175
3 176 175 177
3 178 176 177
3 178 177 179
3 180 178 179
3 180 179 181
3 182 180 181
3 182 181 183
3 184 182 183
3 184 183 185
3 186 184 185
3 186 185 187
3 188 186 187
3 188 187 189
3 190 188 189
3 190 189 191
3 192 190 191
3 192 191 193
3 194 192 193
3 194 193 195
3 196 194 195
3 196 195 197
3 198 196 197
3 198 197 199
3 200 198 199
3 200 199 201
3 202 200 201
3 202 201 203
3 204 202 203
3 204 203 205
3 206 204 205
3 206 205 207
3 208 206 207
3 208 207 209
3 210 208 209
3 210 209 211
3 212 210 211
3 212 211 213
3 214 212 213
3 214 213 215
3 216 214 215
3 216 215 217
3 218 216 217
3 218 217 219
3 220 218 219
3 220 219 221
3 222 220 221
3 222 221 223
3 224 222 223
3 224 223 225
3 226 224 225
3 226 225 227
3 228 226 227
3 228 227 229
3 230 228 229
3 230 229 231
3 232 230 231
3 232 231 233
3 234 232 233
3 234 233 235
3 236 234 235
3 236 235 237
3 238 236 237
3 238 237 239
3 240 238 239
3 240 239 241
3 242 240 241
3 242 241 243
3 244 242 243
3 244 243 245
3 246 244 245
3 246 245 247
3 248 246 247
3 248 247 249
