ply
format ascii 1.0
element vertex 24
property float x
property float y
property float z
property float u
property float v
property float nx
property float ny
property float nz
element face 12
property list uchar int vertex_indices
end_header
-566.998 0.212302 184.383 0.000782 0.99994 -0.57735 -0.57735 0.57735
568.223 0.212302 184.383 0.739089 0.99994 0.57735 -0.57735 0.57735
568.223 286.997 184.383 0.739089 -7.98702e-06 0.57735 0.57735 0.57735
-566.998 286.997 184.383 0.000782 -7.98702e-06 -0.57735 0.57735 0.57735
568.223 0.212302 171.983 0.373583 0.99994 0.57735 -0.57735 -0.57735
568.223 286.997 171.983 0.373583 -7.98702e-06 0.57735 0.57735 -0.57735
568.223 286.997 184.383 0.365518 -7.98702e-06 0.57735 0.57735 0.57735
568.223 0.212302 184.383 0.365518 0.99994 0.57735 -0.57735 0.57735
-566.998 286.997 171.983 0.738292 -7.98702e-06 -0.57735 0.57735 -0.57735
568.223 286.997 171.983 -1.5e-05 -7.98702e-06 0.57735 0.57735 -0.57735
568.223 0.212302 171.983 -1.5e-05 0.99994 0.57735 -0.57735 -0.57735
-566.998 0.212302 171.983 0.738292 0.99994 -0.57735 -0.57735 -0.57735
-566.998 0.212302 171.983 0.000782 0.519946 -0.57735 -0.57735 -0.57735
568.223 0.212302 171.983 0.739089 0.519946 0.57735 -0.57735 -0.57735
568.223 0.212302 184.383 0.739089 0.476711 0.57735 -0.57735 0.57735
-566.998 0.212302 184.383 0.000782 0.476711 -0.57735 -0.57735 0.57735
-566.998 286.997 184.383 0.000782 0.519802 -0.57735 0.57735 0.57735
568.223 286.997 184.383 0.739089 0.519802 0.57735 0.57735 0.57735
568.223 286.997 171.983 0.739089 0.476567 0.57735 0.57735 -0.57735
-566.998 286.997 171.983 0.000782 0.476567 -0.57735 0.57735 -0.57735
-566.998 286.997 184.383 0.304501 0.149582 -0.57735 0.57735 0.57735
-566.998 286.997 171.983 0.434573 0.149582 -0.57735 0.57735 -0.57735
-566.998 0.212302 171.983 0.434573 0.846932 -0.57735 -0.57735 -0.57735
-566.998 0.212302 184.383 0.304501 0.846932 -0.57735 -0.57735 0.57735
3 0 1 2
3 0 2 3
3 4 5 6
3 4 6 7
3 8 9 10
3 8 10 11
3 12 13 14
3 12 14 15
3 16 17 18
3 16 18 19
3 20 21 22
3 20 22 23
