ply
format ascii 1.0
element vertex 24
property float x
property float y
property float z
property float u
property float v
property float nx
property float ny
property float nz
element face 12
property list uchar int vertex_indices
end_header
-578.353 0.212358 184.383 1 1 -0.57735 -0.57735 0.577351
-578.353 286.997 184.383 1 0 -0.57735 0.57735 0.577351
-578.353 286.997 -230.335 0 0 -0.57735 0.57735 -0.57735
-578.353 0.212383 -230.335 0 1 -0.57735 -0.57735 -0.57735
-566.998 0.212358 184.383 1 1 0.577351 -0.57735 0.57735
-566.998 286.997 184.383 1 0 0.57735 0.57735 0.57735
-578.353 286.997 184.383 0 0 -0.57735 0.57735 0.577351
-578.353 0.212358 184.383 0 1 -0.57735 -0.57735 0.577351
-566.998 0.212383 -230.335 1 1 0.57735 -0.57735 -0.57735
-566.998 286.997 -230.335 1 0 0.57735 0.57735 -0.57735
-566.998 286.997 184.383 0 0 0.57735 0.57735 0.57735
-566.998 0.212358 184.383 0 1 0.577351 -0.57735 0.57735
-578.353 0.212383 -230.335 1 1 -0.57735 -0.57735 -0.57735
-578.353 286.997 -230.335 1 0 -0.57735 0.57735 -0.57735
-566.998 286.997 -230.335 0 0 0.57735 0.57735 -0.57735
-566.998 0.212383 -230.335 0 1 0.57735 -0.57735 -0.57735
-578.353 286.997 184.383 1 1 -0.57735 0.57735 0.577351
-566.998 286.997 184.383 1 0 0.57735 0.57735 0.57735
-566.998 286.997 -230.335 0 0 0.57735 0.57735 -0.57735
-578.353 286.997 -230.335 0 1 -0.57735 0.57735 -0.57735
-566.998 0.212358 184.383 1 1 0.577351 -0.57735 0.57735
-578.353 0.212358 184.383 1 0 -0.57735 -0.57735 0.577351
-578.353 0.212383 -230.335 0 0 -0.57735 -0.57735 -0.57735
-566.998 0.212383 -230.335 0 1 0.57735 -0.57735 -0.57735
3 0 1 2
3 0 2 3
3 4 5 6
3 4 6 7
3 8 9 10
3 8 10 11
3 12 13 14
3 12 14 15
3 16 17 18
3 16 18 19
3 20 21 22
3 20 22 23
