ply
format ascii 1.0
element vertex 24
property float x
property float y
property float z
property float u
property float v
property float nx
property float ny
property float nz
element face 12
property list uchar int vertex_indices
end_header
-556.723 0.212352 -157.374 1.0002 0.949367 -0.57735 -0.57735 -0.57735
-556.723 286.997 -157.374 1.0002 0.04182 -0.57735 0.57735 -0.57735
578.482 286.997 -157.374 0.004402 0.04182 0.57735 0.57735 -0.57735
578.482 0.212352 -157.374 0.004402 0.949367 0.57735 -0.57735 -0.57735
-556.723 0.212352 -144.974 0.507193 0.949367 -0.57735 -0.57735 0.57735
-556.723 286.997 -144.974 0.507193 0.04182 -0.57735 0.57735 0.57735
-556.723 286.997 -157.374 0.496316 0.04182 -0.57735 0.57735 -0.57735
-556.723 0.212352 -157.374 0.496316 0.949367 -0.57735 -0.57735 -0.57735
578.482 0.212352 -144.974 0.999107 0.949367 0.57735 -0.57735 0.57735
578.482 286.997 -144.974 0.999107 0.04182 0.57735 0.57735 0.57735
-556.723 286.997 -144.974 0.003313 0.04182 -0.57735 0.57735 0.57735
-556.723 0.212352 -144.974 0.003313 0.949367 -0.57735 -0.57735 0.57735
578.482 0.212352 -157.374 0.507193 0.949367 0.57735 -0.57735 -0.57735
578.482 286.997 -157.374 0.507193 0.04182 0.57735 0.57735 -0.57735
578.482 286.997 -144.974 0.496316 0.04182 0.57735 0.57735 0.57735
578.482 0.212352 -144.974 0.496316 0.949367 0.57735 -0.57735 0.57735
-556.723 286.997 -157.374 1.0002 0.620886 -0.57735 0.57735 -0.57735
-556.723 286.997 -144.974 1.0002 0.581646 -0.57735 0.57735 0.57735
578.482 286.997 -144.974 0.004402 0.581646 0.57735 0.57735 0.57735
578.482 286.997 -157.374 0.004402 0.620886 0.57735 0.57735 -0.57735
-556.723 0.212352 -144.974 1.0002 0.620886 -0.57735 -0.57735 0.57735
-556.723 0.212352 -157.374 1.0002 0.581646 -0.57735 -0.57735 -0.57735
578.482 0.212352 -157.374 0.004402 0.581646 0.57735 -0.57735 -0.57735
578.482 0.212352 -144.974 0.004402 0.620886 0.57735 -0.57735 0.57735
3 0 1 2
3 0 2 3
3 4 5 6
3 4 6 7
3 8 9 10
3 8 10 11
3 12 13 14
3 12 14 15
3 16 17 18
3 16 18 19
3 20 21 22
3 20 22 23
