ply
format ascii 1.0
element vertex 6
property float x
property float y
property float z
property float u
property float v
property float nx
property float ny
property float nz
element face 4
property list uchar int vertex_indices
end_header
-566.998 9.39098 171.98 0.30937 1 0.707107 0 -0.707107
-566.998 9.39098 -232.173 1 1 1 0 0
-566.998 276.634 -232.173 1 0 1 0 0
-566.998 276.634 171.98 0.30937 0 0.707107 0 -0.707107
-385.955 276.634 171.98 0 0 3.37131e-07 0 -1
-385.955 9.39098 171.98 0 1 3.37131e-07 0 -1
3 0 1 2
3 0 2 3
3 3 5 0
3 3 4 5
